<svg width="95" height="24" viewBox="0 0 95 24" fill="none" xmlns="http://www.w3.org/2000/svg">
<g clip-path="url(#clip0_5334_692)">
<g clip-path="url(#clip1_5334_692)">
<path d="M29.2558 16.2178L33.1826 5.5797C33.3514 5.11089 33.6262 4.70535 34.0064 4.40695C34.3653 4.10855 34.8089 3.95899 35.2731 3.95899C35.7374 3.93814 36.2016 4.10855 36.5612 4.40695C36.9414 4.72692 37.2155 5.13246 37.3636 5.60127L41.1844 16.2394C41.2691 16.4738 41.3325 16.7089 41.3325 16.9642C41.3325 17.1986 41.2691 17.4337 41.1431 17.6257C41.0163 17.817 40.8476 17.9881 40.6575 18.073C40.4467 18.1801 40.2139 18.2434 39.9818 18.2434C39.3274 18.2858 38.7364 17.881 38.5463 17.241L37.9546 15.4075H32.529L31.938 17.2202C31.7899 17.8594 31.1989 18.2858 30.5446 18.2434C30.1643 18.2434 29.8055 18.1154 29.5306 17.8386C29.2565 17.5826 29.1084 17.2418 29.1084 16.8794C29.1298 16.645 29.1718 16.4314 29.2558 16.2178ZM35.2304 7.00771L33.3941 12.6787H37.0888L35.2731 7.00771H35.2304Z" fill="#171717"/>
<path d="M42.1554 19.5866V9.16125C42.134 8.75644 42.2821 8.3509 42.5356 8.03093C42.7891 7.73253 43.1693 7.58297 43.5488 7.60454C44.2879 7.60454 44.7735 7.98851 44.9636 8.77657C45.2377 8.35018 45.6179 8.00936 46.0829 7.81738C46.5685 7.60454 47.0961 7.47583 47.6237 7.4974C48.5109 7.47583 49.376 7.75338 50.0945 8.28619C50.7908 8.81899 51.3184 9.5445 51.6353 10.3549C51.9949 11.2076 52.1629 12.1453 52.1629 13.0627C52.1629 13.9802 51.9735 14.8323 51.5933 15.6211C51.2344 16.4099 50.6641 17.0922 49.9463 17.6042C49.2493 18.0946 48.4055 18.3721 47.539 18.3505C47.0747 18.3505 46.6319 18.265 46.1883 18.0946C45.7447 17.9242 45.3225 17.6897 44.9636 17.3698V19.5657C44.9636 19.8433 44.9002 20.1201 44.7735 20.3753C44.6674 20.6098 44.478 20.8017 44.2665 20.9297C44.0558 21.0577 43.8023 21.121 43.5488 21.121C43.1686 21.1426 42.7883 20.9721 42.5356 20.6946C42.2821 20.3962 42.1347 19.9914 42.1554 19.5866ZM44.9636 12.8492C44.9422 13.574 45.153 14.2779 45.5332 14.8963C46.1035 15.8131 47.3069 16.069 48.1933 15.4931C48.2567 15.4507 48.2987 15.4082 48.3621 15.3867C48.7003 15.1098 48.9531 14.7259 49.1225 14.3203C49.2913 13.894 49.376 13.4251 49.376 12.9556C49.376 12.4861 49.2913 12.0173 49.1225 11.5909C48.9744 11.1645 48.721 10.8021 48.3835 10.5037C48.046 10.2261 47.623 10.0773 47.1801 10.0773C46.7365 10.0557 46.315 10.2053 45.9768 10.4821C45.6393 10.7597 45.3858 11.1005 45.2377 11.5053C45.0476 11.9317 44.9636 12.3797 44.9636 12.8485" fill="#171717"/>
<path d="M54.0419 16.6658V10.1845H53.4089C53.0714 10.2053 52.7546 10.0773 52.5225 9.84291C52.2896 9.6085 52.1636 9.26696 52.185 8.94771C52.185 8.62774 52.311 8.30848 52.5438 8.07408C52.7759 7.83967 53.0928 7.71168 53.4096 7.73254H54.0426V6.04783C54.0213 5.64302 54.1701 5.2382 54.4229 4.91751C54.6756 4.61911 55.0566 4.46955 55.4361 4.49112C55.6896 4.49112 55.943 4.55511 56.1538 4.68238C56.3646 4.81037 56.534 5.00235 56.6608 5.23676C56.7875 5.49274 56.8516 5.76957 56.8516 6.0464V7.70953H57.6533C57.9915 7.68796 58.329 7.79437 58.6245 8.00793C58.8987 8.24233 59.0254 8.58316 59.0047 8.94627C59.0254 9.30866 58.8987 9.64949 58.6245 9.88461C58.3497 10.0974 58.0122 10.2039 57.6533 10.183H56.8516V16.6644C56.8516 16.942 56.7875 17.2188 56.6608 17.4748C56.5554 17.7092 56.3653 17.9011 56.1538 18.0291C55.943 18.1571 55.6888 18.2211 55.4361 18.2211C55.0566 18.242 54.6756 18.0716 54.4229 17.7947C54.1701 17.4963 54.0213 17.0915 54.0426 16.6651" fill="#171717"/>
<path d="M63.7537 7.47656C64.4507 7.47656 65.1471 7.62612 65.7801 7.92452C66.3924 8.20207 66.9414 8.62846 67.3843 9.13969C67.8279 9.65165 68.1867 10.2484 68.4188 10.8884C68.6723 11.5492 68.7991 12.2531 68.7777 12.9563C68.7777 13.6603 68.651 14.3851 68.4188 15.0459C68.1867 15.6851 67.8485 16.261 67.4056 16.773C66.962 17.2634 66.4138 17.6682 65.8007 17.9457C65.1464 18.2441 64.45 18.3937 63.7529 18.3721C62.8237 18.3937 61.9166 18.1377 61.1348 17.6473C60.3751 17.1569 59.7627 16.4746 59.3405 15.6642C58.9183 14.8323 58.7075 13.8947 58.7075 12.9563C58.7075 12.2531 58.835 11.5708 59.0664 10.91C59.2985 10.27 59.6574 9.67322 60.101 9.14041C60.5445 8.62846 61.0935 8.22364 61.7059 7.92524C62.3602 7.62684 63.0566 7.47728 63.7537 7.47728M63.7537 10.0572C63.3101 10.0572 62.8885 10.1852 62.5503 10.4836C62.2128 10.7611 61.938 11.1444 61.7906 11.5708C61.6218 12.0187 61.5371 12.4875 61.5371 12.9563C61.5371 13.4252 61.6218 13.8947 61.7906 14.3211C61.9387 14.7259 62.2128 15.1099 62.5503 15.3874C63.268 15.9202 64.2606 15.9202 64.9783 15.3874C65.3158 15.1106 65.5693 14.7482 65.7381 14.3211C65.9068 13.8731 65.9915 13.4259 65.9915 12.9563C65.9915 12.4868 65.9068 12.018 65.7381 11.5916C65.5907 11.1652 65.3372 10.8028 64.9783 10.5044C64.6195 10.206 64.1972 10.0565 63.7537 10.0565" fill="#171717"/>
<path d="M71.3327 3.38306C71.6068 3.38306 71.8817 3.46862 72.1138 3.59661C72.3459 3.74617 72.5574 3.93743 72.6841 4.17184C72.8322 4.38467 72.8949 4.66222 72.8949 4.9182C72.8949 5.34459 72.7261 5.74941 72.4314 6.0701C71.861 6.68847 70.9112 6.70932 70.2981 6.13409C70.2775 6.11252 70.2348 6.0701 70.2134 6.04924C69.9186 5.75012 69.7285 5.34531 69.7285 4.91892C69.7285 4.49253 69.898 4.10856 70.2134 3.85259C70.5096 3.55491 70.9105 3.38378 71.3327 3.38378" fill="#171717"/>
<path d="M69.9403 16.6658V9.1605C69.9189 8.75569 70.0663 8.35087 70.3198 8.03018C70.5733 7.73178 70.9535 7.58222 71.333 7.60379C71.5865 7.60379 71.84 7.66779 72.0507 7.79505C72.2622 7.92304 72.431 8.11503 72.557 8.34943C72.6837 8.60541 72.7471 8.88224 72.7471 9.15979V16.6644C72.7471 16.9419 72.6837 17.2187 72.557 17.4747C72.4516 17.7091 72.2615 17.9011 72.0507 18.0291C71.84 18.1571 71.5865 18.2211 71.333 18.2211C70.9528 18.2419 70.5733 18.0715 70.3198 17.7947C70.0457 17.4963 69.9189 17.0915 69.9403 16.6651" fill="#171717"/>
<path d="M83.895 4.6198V16.6658C83.895 16.9426 83.8309 17.2202 83.7049 17.4762C83.5988 17.7106 83.4094 17.9026 83.1986 18.0305C82.9872 18.1585 82.7344 18.2225 82.4809 18.2225C81.7205 18.2225 81.2562 17.8386 81.0868 17.0498C80.8126 17.4762 80.4324 17.7961 79.9888 18.009C79.5246 18.2225 79.0183 18.3505 78.5114 18.3505C77.6456 18.3721 76.8011 18.0945 76.1047 17.6042C75.3863 17.0929 74.8373 16.4106 74.4578 15.6218C74.0783 14.8323 73.8882 13.9378 73.8882 13.0634C73.8882 12.1251 74.0569 11.209 74.3944 10.3556C74.7113 9.54592 75.2389 8.82041 75.9353 8.2876C76.653 7.7548 77.5188 7.47725 78.4053 7.49882C78.7221 7.49882 79.039 7.54124 79.3551 7.60523C79.672 7.66923 79.9675 7.77565 80.263 7.92521C80.5585 8.07477 80.8333 8.24518 81.0868 8.47958V4.64209C81.0661 4.23727 81.2135 3.83245 81.467 3.51248C81.7205 3.21408 82.1 3.06452 82.4802 3.08609C82.7337 3.08609 82.9872 3.15008 83.2193 3.27807C83.4308 3.40606 83.5995 3.59804 83.7263 3.83245C83.8309 4.06686 83.895 4.34369 83.895 4.62123M81.0868 12.8506C81.1081 12.1474 80.8967 11.465 80.5164 10.8891C80.1576 10.3563 79.5246 10.0363 78.8909 10.0571C78.448 10.0571 78.0471 10.2067 77.7082 10.4835C77.3707 10.7819 77.1172 11.1443 76.9698 11.5707C76.8011 12.0187 76.7164 12.4659 76.7164 12.9347C76.7164 13.2763 76.7591 13.6171 76.8645 13.9371C76.9485 14.2786 77.0966 14.5763 77.286 14.8754C77.4554 15.1522 77.7082 15.3658 77.9823 15.5362C78.2572 15.7066 78.5954 15.7922 78.9115 15.7706C79.3551 15.7922 79.798 15.6218 80.1355 15.3449C80.4737 15.0465 80.7265 14.6626 80.8746 14.2362C81.0013 13.7882 81.0854 13.3194 81.0854 12.8506" fill="#171717"/>
<path d="M93.7332 13.8723H87.7579C87.8212 14.4907 88.1381 15.0451 88.6237 15.3859C89.1513 15.7483 89.7636 15.9187 90.3966 15.8979C90.7768 15.8979 91.1357 15.8339 91.4732 15.7059C91.7687 15.5779 92.1489 15.3859 92.5918 15.1307C92.8873 14.9387 93.2255 14.8107 93.563 14.7683C93.7524 14.7683 93.9646 14.8323 94.1113 14.9394C94.28 15.0458 94.4281 15.2162 94.5549 15.3866C94.661 15.557 94.7236 15.7706 94.7236 15.9626C94.703 16.3041 94.5549 16.6025 94.3227 16.8369C94.0059 17.1569 93.6477 17.4122 93.2462 17.6041C92.7606 17.8385 92.2536 18.0305 91.7267 18.1585C91.1991 18.2865 90.6708 18.3505 90.1431 18.3714C89.1933 18.3922 88.2435 18.1369 87.3983 17.6674C86.5965 17.2202 85.9628 16.5371 85.5406 15.7275C85.097 14.8747 84.8649 13.9155 84.8855 12.9347C84.8855 12.2308 85.013 11.5491 85.2658 10.8876C85.4979 10.2484 85.8567 9.6516 86.3217 9.11807C87.7365 7.49736 90.0378 7.02855 91.9795 7.92447C92.5918 8.2013 93.1408 8.62841 93.5837 9.11807C94.0272 9.60917 94.3655 10.1628 94.6182 10.7812C94.8504 11.3564 94.9771 11.9748 94.9985 12.5932C94.9771 13.446 94.5549 13.8723 93.7318 13.8723M87.6938 11.9748H92.1482C92.1062 11.3996 91.8527 10.8445 91.4519 10.4181C91.0503 10.0133 90.4806 9.79972 89.9103 9.82129C89.34 9.79972 88.8124 10.0133 88.4115 10.4181C88.0106 10.8452 87.7571 11.3989 87.6938 11.9748Z" fill="#171717"/>
<rect x="3" y="4" width="17" height="17" fill="white"/>
<path d="M23.1787 4.89376C22.6424 2.68416 21.2654 1.30146 19.0241 0.784469C16.7199 0.26892 14.3963 0 12.0519 0C9.70755 0 7.40329 0.26892 5.16275 0.805321C2.9616 1.32159 1.46004 2.53964 0.904377 4.77081C0.309336 7.12421 0 9.56031 0 11.9964C0 14.4325 0.267804 16.7881 0.822747 19.1005C1.35692 21.3108 2.73533 22.6942 4.97658 23.2105C9.54286 24.2624 14.2731 24.2624 18.838 23.2105C21.0398 22.6942 22.5407 21.4747 23.0949 19.2242C23.6914 16.8708 24 14.4332 24 11.9957C24 9.55815 23.7336 7.20546 23.178 4.89304L23.1787 4.89376ZM6.06713 14.1873C6.00555 14.1248 5.94397 14.0629 5.88239 14.0011C5.6153 13.6905 5.44989 13.2777 5.40908 12.8449L5.30668 6.897C5.28591 6.44329 5.59453 6.27647 5.96402 6.54539L11.6001 10.6338L6.33493 14.4124L6.06785 14.1866L6.06713 14.1873ZM18.7148 12.8859C18.6747 13.4014 18.4477 13.8774 18.0575 14.2276L12.71 18.4821C12.3204 18.7719 11.8056 18.7719 11.4139 18.4821L7.52788 15.3435L6.78676 14.7654L12.0712 10.966L14.6634 9.10803L18.3038 6.5044C18.6131 6.38145 18.8172 6.54683 18.8172 6.9387L18.7148 12.8859V12.8859Z" fill="#171717"/>
</g>
</g>
<defs>
<clipPath id="clip0_5334_692">
<rect width="95" height="24" fill="white"/>
</clipPath>
<clipPath id="clip1_5334_692">
<rect width="95" height="24" fill="white"/>
</clipPath>
</defs>
</svg>
