<svg width="24" height="24" viewBox="0 0 24 24" fill="none" xmlns="http://www.w3.org/2000/svg">
<g clip-path="url(#clip0_5348_313)">
<rect x="0.5" y="0.5" width="23" height="23" rx="11.5" stroke="#6F6F6F"/>
<path d="M14.6927 6H9.30731C8.43015 6 7.58892 6.34861 6.96868 6.96913C6.34844 7.58966 6 8.43127 6 9.30882V14.6912C6 15.5687 6.34844 16.4103 6.96868 17.0309C7.58892 17.6514 8.43015 18 9.30731 18H14.6927C15.5698 18 16.4111 17.6514 17.0313 17.0309C17.6516 16.4103 18 15.5687 18 14.6912V9.30882C18 8.43127 17.6516 7.58966 17.0313 6.96913C16.4111 6.34861 15.5698 6 14.6927 6ZM12.0028 15.1048C11.3896 15.1059 10.7899 14.9249 10.2796 14.5848C9.76933 14.2446 9.37141 13.7606 9.13626 13.1941C8.90111 12.6276 8.8393 12.0039 8.95866 11.4022C9.07801 10.8005 9.37317 10.2478 9.80675 9.81401C10.2403 9.38024 10.7928 9.08495 11.3942 8.96554C11.9957 8.84613 12.619 8.90797 13.1853 9.14323C13.7516 9.37849 14.2353 9.77658 14.5753 10.2871C14.9153 10.7976 15.0962 11.3976 15.0951 12.011C15.0864 12.8311 14.7531 13.6143 14.1683 14.189C13.5835 14.7637 12.7949 15.0831 11.9752 15.0772L12.0028 15.1048ZM15.751 9.30882C15.6236 9.43779 15.4554 9.51854 15.2752 9.53727C15.0949 9.55601 14.9137 9.51157 14.7625 9.41155C14.6114 9.31152 14.4996 9.16212 14.4462 8.98882C14.3929 8.81552 14.4013 8.62908 14.4701 8.46131C14.5388 8.29353 14.6636 8.15483 14.8232 8.06887C14.9828 7.98291 15.1673 7.95502 15.3451 7.98996C15.523 8.0249 15.6832 8.1205 15.7984 8.26045C15.9137 8.4004 15.9768 8.57603 15.977 8.75735C15.9773 8.96379 15.8961 9.16199 15.751 9.30882Z" fill="#6F6F6F"/>
<path d="M11.9752 9.95405C11.574 9.95405 11.1818 10.0731 10.8482 10.2961C10.5147 10.5191 10.2547 10.836 10.1011 11.2068C9.9476 11.5777 9.90743 11.9857 9.9857 12.3794C10.064 12.773 10.2571 13.1347 10.5408 13.4185C10.8245 13.7023 11.186 13.8956 11.5795 13.9739C11.973 14.0522 12.3808 14.012 12.7515 13.8584C13.1221 13.7048 13.4389 13.4447 13.6618 13.1109C13.8847 12.7772 14.0037 12.3848 14.0037 11.9835C14.0022 11.4457 13.788 10.9303 13.4079 10.5501C13.0278 10.1698 12.5127 9.95551 11.9752 9.95405Z" fill="#6F6F6F"/>
</g>
<defs>
<clipPath id="clip0_5348_313">
<rect width="24" height="24" fill="white"/>
</clipPath>
</defs>
</svg>
