<svg width="24" height="24" viewBox="0 0 24 24" fill="none" xmlns="http://www.w3.org/2000/svg">
<g clip-path="url(#clip0_5348_307)">
<rect x="0.5" y="0.5" width="23" height="23" rx="11.5" stroke="#6F6F6F"/>
<path fill-rule="evenodd" clip-rule="evenodd" d="M9.35416 7.30782C9.35378 7.48807 9.31766 7.66633 9.24806 7.8316C9.17845 7.99688 9.07683 8.14568 8.94944 8.26882C8.82205 8.39196 8.6716 8.48683 8.50737 8.54759C8.34314 8.60836 8.16861 8.63372 7.99453 8.62211C7.74982 8.59692 7.51742 8.49896 7.32548 8.3401C7.13354 8.18124 6.99029 7.96829 6.91306 7.72704C6.83583 7.48578 6.82793 7.22656 6.89034 6.98077C6.95275 6.73498 7.08278 6.51315 7.26468 6.34214C7.44658 6.17113 7.67256 6.05828 7.91526 6.01725C8.15795 5.97622 8.40695 6.00876 8.63212 6.11094C8.85728 6.21313 9.04894 6.38057 9.18391 6.59299C9.31887 6.80541 9.39133 7.05371 9.39255 7.30782H9.35416ZM9.1897 9.65315V17.2387H6.75V9.65315H9.1897ZM18 17.2387V12.8879C18 10.5596 16.7939 9.48887 15.1875 9.48887C14.7464 9.47191 14.3091 9.57951 13.9227 9.8001C13.5363 10.0207 13.2154 10.3459 12.9945 10.7408V9.66448H10.5548C10.5877 10.3783 10.5548 17.25 10.5548 17.25H12.9945V13.0125C12.9855 12.8051 13.0134 12.5977 13.0768 12.4007C13.1677 12.1313 13.3373 11.8978 13.5622 11.7324C13.7871 11.567 14.0562 11.4778 14.3322 11.4773C15.2149 11.4773 15.5658 12.1741 15.5658 13.1768V17.233L18 17.2387Z" fill="#6F6F6F"/>
</g>
<defs>
<clipPath id="clip0_5348_307">
<rect width="24" height="24" fill="white"/>
</clipPath>
</defs>
</svg>
