<svg width="25" height="24" viewBox="0 0 25 24" fill="none" xmlns="http://www.w3.org/2000/svg">
<g clip-path="url(#clip0_5348_316)">
<rect x="0.5" y="0.5" width="24" height="23" rx="11.5" stroke="#6F6F6F"/>
<path d="M18.7499 8.58001C18.312 8.76997 17.846 8.89344 17.3687 8.94601C17.8709 8.65751 18.2465 8.20316 18.4249 7.66801C17.9551 7.93943 17.4387 8.12838 16.8999 8.22601C16.5356 7.85832 16.0556 7.61565 15.5337 7.53532C15.0118 7.45498 14.4769 7.54142 14.0111 7.78134C13.5454 8.02126 13.1746 8.40139 12.9557 8.8633C12.7369 9.32521 12.6822 9.84333 12.7999 10.338C11.8443 10.2915 10.9094 10.054 10.0548 9.64076C9.20033 9.22749 8.44507 8.64754 7.83741 7.93801C7.52964 8.44704 7.43588 9.04966 7.57527 9.62281C7.71465 10.196 8.07666 10.6964 8.5874 11.022C8.20401 11.0117 7.82885 10.913 7.49365 10.734V10.764C7.49308 11.2974 7.68529 11.8144 8.03748 12.2269C8.38966 12.6394 8.88003 12.9218 9.42492 13.026C9.07073 13.1209 8.69839 13.1352 8.33741 13.068C8.49131 13.5271 8.79104 13.9284 9.19455 14.2157C9.59806 14.503 10.0851 14.6619 10.5874 14.67C9.73512 15.3118 8.68312 15.6604 7.59991 15.66C7.40616 15.66 7.21865 15.66 7.0249 15.66C8.05949 16.2968 9.2536 16.6544 10.4818 16.6952C11.71 16.736 12.927 16.4586 14.005 15.892C15.083 15.3255 15.9822 14.4908 16.6082 13.4755C17.2341 12.4602 17.5637 11.3018 17.5624 10.122C17.5624 10.026 17.5624 9.92401 17.5624 9.82201C18.0378 9.49649 18.4467 9.0897 18.7687 8.62201L18.7499 8.58001Z" fill="#6F6F6F"/>
</g>
<defs>
<clipPath id="clip0_5348_316">
<rect width="25" height="24" fill="white"/>
</clipPath>
</defs>
</svg>
