<svg width="25" height="24" viewBox="0 0 25 24" fill="none" xmlns="http://www.w3.org/2000/svg">
<g clip-path="url(#clip0_5348_310)">
<rect x="0.5" y="0.5" width="24" height="23" rx="11.5" stroke="#6F6F6F"/>
<path d="M12.6 7.5C12.6 7.5 8.13121 7.5 7.01246 7.776C6.71739 7.86193 6.44894 8.01639 6.23091 8.22571C6.01287 8.43502 5.85197 8.69273 5.76246 8.976C5.37085 11.1599 5.37085 13.3921 5.76246 15.576C5.84839 15.861 6.00807 16.1206 6.22663 16.3304C6.4452 16.5402 6.71554 16.6935 7.01246 16.776C8.14371 17.064 12.6 17.064 12.6 17.064C12.6 17.064 17.075 17.064 18.225 16.782C18.5249 16.7054 18.7985 16.554 19.018 16.3433C19.2375 16.1326 19.3951 15.87 19.475 15.582C19.6818 14.4954 19.7823 13.3926 19.775 12.288C19.789 11.1772 19.6885 10.0678 19.475 8.976C19.3957 8.68775 19.2383 8.42482 19.0187 8.21402C18.7991 8.00321 18.5252 7.85207 18.225 7.776C17.075 7.5 12.6 7.5 12.6 7.5ZM11.1812 10.242L14.8937 12.3L11.1812 14.352V10.242Z" fill="#6F6F6F"/>
</g>
<defs>
<clipPath id="clip0_5348_310">
<rect width="25" height="24" fill="white"/>
</clipPath>
</defs>
</svg>
